<mxfile host="app.diagrams.net" modified="2024-02-21T14:55:01.351Z" agent="Mozilla/5.0 (Windows NT 10.0; Win64; x64) AppleWebKit/537.36 (KHTML, like Gecko) Chrome/121.0.0.0 Safari/537.36" etag="6CIv1Ed1Es47BYK3ZE33" version="23.1.5" type="github">
  <diagram name="Seite-1" id="CJMkLOp0DpNCedcv_mMo">
    <mxGraphModel dx="819" dy="495" grid="1" gridSize="10" guides="1" tooltips="1" connect="1" arrows="1" fold="1" page="1" pageScale="1" pageWidth="1169" pageHeight="827" background="none" math="0" shadow="0">
      <root>
        <mxCell id="0" />
        <mxCell id="1" parent="0" />
        <mxCell id="xkjZHJFq0-rX7K31Djkl-27" value="" style="shape=table;startSize=0;container=1;collapsible=0;childLayout=tableLayout;fontSize=16;arcSize=19;swimlaneFillColor=none;fillColor=none;strokeColor=none;" vertex="1" parent="1">
          <mxGeometry x="10" y="80" width="370" height="190" as="geometry" />
        </mxCell>
        <mxCell id="xkjZHJFq0-rX7K31Djkl-28" value="" style="shape=tableRow;horizontal=0;startSize=0;swimlaneHead=0;swimlaneBody=0;strokeColor=inherit;top=0;left=0;bottom=0;right=0;collapsible=0;dropTarget=0;fillColor=none;points=[[0,0.5],[1,0.5]];portConstraint=eastwest;fontSize=16;" vertex="1" parent="xkjZHJFq0-rX7K31Djkl-27">
          <mxGeometry width="370" height="30" as="geometry" />
        </mxCell>
        <mxCell id="xkjZHJFq0-rX7K31Djkl-29" value="&lt;b style=&quot;border-color: var(--border-color); font-size: 10px;&quot;&gt;Scene View&lt;/b&gt;" style="shape=partialRectangle;html=1;whiteSpace=wrap;connectable=0;strokeColor=inherit;overflow=hidden;fillColor=none;top=0;left=0;bottom=0;right=0;pointerEvents=1;fontSize=16;" vertex="1" parent="xkjZHJFq0-rX7K31Djkl-28">
          <mxGeometry width="100" height="30" as="geometry">
            <mxRectangle width="100" height="30" as="alternateBounds" />
          </mxGeometry>
        </mxCell>
        <mxCell id="xkjZHJFq0-rX7K31Djkl-30" value="&lt;font style=&quot;font-size: 10px;&quot;&gt;Betrachtung &amp;amp; Bearbeitung der Szene / des Spiels&lt;/font&gt;" style="shape=partialRectangle;html=1;whiteSpace=wrap;connectable=0;strokeColor=inherit;overflow=hidden;fillColor=none;top=0;left=0;bottom=0;right=0;pointerEvents=1;fontSize=16;align=left;" vertex="1" parent="xkjZHJFq0-rX7K31Djkl-28">
          <mxGeometry x="100" width="270" height="30" as="geometry">
            <mxRectangle width="270" height="30" as="alternateBounds" />
          </mxGeometry>
        </mxCell>
        <mxCell id="xkjZHJFq0-rX7K31Djkl-32" value="" style="shape=tableRow;horizontal=0;startSize=0;swimlaneHead=0;swimlaneBody=0;strokeColor=inherit;top=0;left=0;bottom=0;right=0;collapsible=0;dropTarget=0;fillColor=none;points=[[0,0.5],[1,0.5]];portConstraint=eastwest;fontSize=16;" vertex="1" parent="xkjZHJFq0-rX7K31Djkl-27">
          <mxGeometry y="30" width="370" height="30" as="geometry" />
        </mxCell>
        <mxCell id="xkjZHJFq0-rX7K31Djkl-33" value="&lt;b style=&quot;border-color: var(--border-color); font-size: 10px;&quot;&gt;Game View&lt;/b&gt;" style="shape=partialRectangle;html=1;whiteSpace=wrap;connectable=0;strokeColor=#6c8ebf;overflow=hidden;fillColor=#dae8fc;top=0;left=0;bottom=0;right=0;pointerEvents=1;fontSize=16;" vertex="1" parent="xkjZHJFq0-rX7K31Djkl-32">
          <mxGeometry width="100" height="30" as="geometry">
            <mxRectangle width="100" height="30" as="alternateBounds" />
          </mxGeometry>
        </mxCell>
        <mxCell id="xkjZHJFq0-rX7K31Djkl-34" value="&lt;font style=&quot;font-size: 10px;&quot;&gt;Betrachtung &amp;amp; Bearbeitung der Szene / des Spiels&lt;/font&gt;" style="shape=partialRectangle;html=1;whiteSpace=wrap;connectable=0;strokeColor=#6c8ebf;overflow=hidden;fillColor=#dae8fc;top=0;left=0;bottom=0;right=0;pointerEvents=1;fontSize=16;align=left;" vertex="1" parent="xkjZHJFq0-rX7K31Djkl-32">
          <mxGeometry x="100" width="270" height="30" as="geometry">
            <mxRectangle width="270" height="30" as="alternateBounds" />
          </mxGeometry>
        </mxCell>
        <mxCell id="xkjZHJFq0-rX7K31Djkl-36" value="" style="shape=tableRow;horizontal=0;startSize=0;swimlaneHead=0;swimlaneBody=0;strokeColor=inherit;top=0;left=0;bottom=0;right=0;collapsible=0;dropTarget=0;fillColor=none;points=[[0,0.5],[1,0.5]];portConstraint=eastwest;fontSize=16;" vertex="1" parent="xkjZHJFq0-rX7K31Djkl-27">
          <mxGeometry y="60" width="370" height="30" as="geometry" />
        </mxCell>
        <mxCell id="xkjZHJFq0-rX7K31Djkl-37" value="&lt;b style=&quot;border-color: var(--border-color); font-size: 10px;&quot;&gt;Hierarchy&lt;/b&gt;" style="shape=partialRectangle;html=1;whiteSpace=wrap;connectable=0;strokeColor=inherit;overflow=hidden;fillColor=none;top=0;left=0;bottom=0;right=0;pointerEvents=1;fontSize=16;" vertex="1" parent="xkjZHJFq0-rX7K31Djkl-36">
          <mxGeometry width="100" height="30" as="geometry">
            <mxRectangle width="100" height="30" as="alternateBounds" />
          </mxGeometry>
        </mxCell>
        <mxCell id="xkjZHJFq0-rX7K31Djkl-38" value="&lt;font style=&quot;font-size: 10px;&quot;&gt;Alle Objekte in der aktuellen Szene hierarchisch angeordnet&lt;/font&gt;" style="shape=partialRectangle;html=1;whiteSpace=wrap;connectable=0;strokeColor=inherit;overflow=hidden;fillColor=none;top=0;left=0;bottom=0;right=0;pointerEvents=1;fontSize=16;align=left;" vertex="1" parent="xkjZHJFq0-rX7K31Djkl-36">
          <mxGeometry x="100" width="270" height="30" as="geometry">
            <mxRectangle width="270" height="30" as="alternateBounds" />
          </mxGeometry>
        </mxCell>
        <mxCell id="xkjZHJFq0-rX7K31Djkl-43" style="shape=tableRow;horizontal=0;startSize=0;swimlaneHead=0;swimlaneBody=0;strokeColor=inherit;top=0;left=0;bottom=0;right=0;collapsible=0;dropTarget=0;fillColor=none;points=[[0,0.5],[1,0.5]];portConstraint=eastwest;fontSize=16;" vertex="1" parent="xkjZHJFq0-rX7K31Djkl-27">
          <mxGeometry y="90" width="370" height="40" as="geometry" />
        </mxCell>
        <mxCell id="xkjZHJFq0-rX7K31Djkl-44" value="&lt;b style=&quot;border-color: var(--border-color); font-size: 10px;&quot;&gt;Inspector&lt;/b&gt;" style="shape=partialRectangle;html=1;whiteSpace=wrap;connectable=0;strokeColor=#6c8ebf;overflow=hidden;fillColor=#dae8fc;top=0;left=0;bottom=0;right=0;pointerEvents=1;fontSize=16;" vertex="1" parent="xkjZHJFq0-rX7K31Djkl-43">
          <mxGeometry width="100" height="40" as="geometry">
            <mxRectangle width="100" height="40" as="alternateBounds" />
          </mxGeometry>
        </mxCell>
        <mxCell id="xkjZHJFq0-rX7K31Djkl-45" value="&lt;font style=&quot;font-size: 10px;&quot;&gt;Zeigt Eigenschaften / Komponenten des aktuellen Skriptes an&lt;/font&gt;" style="shape=partialRectangle;html=1;whiteSpace=wrap;connectable=0;strokeColor=#6c8ebf;overflow=hidden;fillColor=#dae8fc;top=0;left=0;bottom=0;right=0;pointerEvents=1;fontSize=16;align=left;" vertex="1" parent="xkjZHJFq0-rX7K31Djkl-43">
          <mxGeometry x="100" width="270" height="40" as="geometry">
            <mxRectangle width="270" height="40" as="alternateBounds" />
          </mxGeometry>
        </mxCell>
        <mxCell id="xkjZHJFq0-rX7K31Djkl-40" style="shape=tableRow;horizontal=0;startSize=0;swimlaneHead=0;swimlaneBody=0;strokeColor=inherit;top=0;left=0;bottom=0;right=0;collapsible=0;dropTarget=0;fillColor=none;points=[[0,0.5],[1,0.5]];portConstraint=eastwest;fontSize=16;" vertex="1" parent="xkjZHJFq0-rX7K31Djkl-27">
          <mxGeometry y="130" width="370" height="30" as="geometry" />
        </mxCell>
        <mxCell id="xkjZHJFq0-rX7K31Djkl-41" value="&lt;b style=&quot;border-color: var(--border-color); font-size: 10px;&quot;&gt;Project&lt;/b&gt;" style="shape=partialRectangle;html=1;whiteSpace=wrap;connectable=0;strokeColor=inherit;overflow=hidden;fillColor=none;top=0;left=0;bottom=0;right=0;pointerEvents=1;fontSize=16;" vertex="1" parent="xkjZHJFq0-rX7K31Djkl-40">
          <mxGeometry width="100" height="30" as="geometry">
            <mxRectangle width="100" height="30" as="alternateBounds" />
          </mxGeometry>
        </mxCell>
        <mxCell id="xkjZHJFq0-rX7K31Djkl-42" value="&lt;font style=&quot;font-size: 10px;&quot;&gt;Beinhaltet alle Dateien deines Projekts&lt;/font&gt;" style="shape=partialRectangle;html=1;whiteSpace=wrap;connectable=0;strokeColor=inherit;overflow=hidden;fillColor=none;top=0;left=0;bottom=0;right=0;pointerEvents=1;fontSize=16;align=left;" vertex="1" parent="xkjZHJFq0-rX7K31Djkl-40">
          <mxGeometry x="100" width="270" height="30" as="geometry">
            <mxRectangle width="270" height="30" as="alternateBounds" />
          </mxGeometry>
        </mxCell>
        <mxCell id="xkjZHJFq0-rX7K31Djkl-64" style="shape=tableRow;horizontal=0;startSize=0;swimlaneHead=0;swimlaneBody=0;strokeColor=inherit;top=0;left=0;bottom=0;right=0;collapsible=0;dropTarget=0;fillColor=none;points=[[0,0.5],[1,0.5]];portConstraint=eastwest;fontSize=16;" vertex="1" parent="xkjZHJFq0-rX7K31Djkl-27">
          <mxGeometry y="160" width="370" height="30" as="geometry" />
        </mxCell>
        <mxCell id="xkjZHJFq0-rX7K31Djkl-65" value="&lt;font style=&quot;font-size: 10px;&quot;&gt;&lt;b&gt;Console&lt;/b&gt;&lt;/font&gt;" style="shape=partialRectangle;html=1;whiteSpace=wrap;connectable=0;strokeColor=#6c8ebf;overflow=hidden;fillColor=#dae8fc;top=0;left=0;bottom=0;right=0;pointerEvents=1;fontSize=16;" vertex="1" parent="xkjZHJFq0-rX7K31Djkl-64">
          <mxGeometry width="100" height="30" as="geometry">
            <mxRectangle width="100" height="30" as="alternateBounds" />
          </mxGeometry>
        </mxCell>
        <mxCell id="xkjZHJFq0-rX7K31Djkl-66" value="&lt;font style=&quot;font-size: 10px;&quot;&gt;Zeigt Fehler, Warnungen und Informationen an&lt;/font&gt;" style="shape=partialRectangle;html=1;whiteSpace=wrap;connectable=0;strokeColor=#6c8ebf;overflow=hidden;fillColor=#dae8fc;top=0;left=0;bottom=0;right=0;pointerEvents=1;fontSize=16;align=left;" vertex="1" parent="xkjZHJFq0-rX7K31Djkl-64">
          <mxGeometry x="100" width="270" height="30" as="geometry">
            <mxRectangle width="270" height="30" as="alternateBounds" />
          </mxGeometry>
        </mxCell>
        <mxCell id="xkjZHJFq0-rX7K31Djkl-47" value="" style="rounded=1;whiteSpace=wrap;html=1;arcSize=3;fillColor=none;strokeColor=#6c8ebf;" vertex="1" parent="1">
          <mxGeometry x="10" y="80" width="370" height="190" as="geometry" />
        </mxCell>
        <mxCell id="xkjZHJFq0-rX7K31Djkl-1" value="&lt;font style=&quot;font-size: 16px;&quot;&gt;&lt;b&gt;Unity2D CheatSheet&lt;/b&gt;&lt;/font&gt;" style="rounded=1;whiteSpace=wrap;html=1;fillColor=#dae8fc;strokeColor=#6c8ebf;" vertex="1" parent="1">
          <mxGeometry x="10" y="10" width="370" height="30" as="geometry" />
        </mxCell>
        <mxCell id="xkjZHJFq0-rX7K31Djkl-2" value="&lt;font style=&quot;font-size: 15px;&quot;&gt;&lt;b&gt;Basics&lt;/b&gt;&lt;/font&gt;" style="rounded=1;whiteSpace=wrap;html=1;fillColor=#dae8fc;strokeColor=#6c8ebf;" vertex="1" parent="1">
          <mxGeometry x="10" y="50" width="370" height="20" as="geometry" />
        </mxCell>
        <mxCell id="xkjZHJFq0-rX7K31Djkl-4" value="&lt;font style=&quot;font-size: 15px;&quot;&gt;&lt;b&gt;Basics&lt;/b&gt;&lt;/font&gt;" style="rounded=1;whiteSpace=wrap;html=1;fillColor=#dae8fc;strokeColor=#6c8ebf;" vertex="1" parent="1">
          <mxGeometry x="790" y="50" width="370" height="20" as="geometry" />
        </mxCell>
        <mxCell id="xkjZHJFq0-rX7K31Djkl-48" value="" style="shape=table;startSize=0;container=1;collapsible=0;childLayout=tableLayout;fontSize=16;arcSize=19;swimlaneFillColor=none;fillColor=none;strokeColor=none;" vertex="1" parent="1">
          <mxGeometry x="10" y="280" width="370" height="160" as="geometry" />
        </mxCell>
        <mxCell id="xkjZHJFq0-rX7K31Djkl-49" value="" style="shape=tableRow;horizontal=0;startSize=0;swimlaneHead=0;swimlaneBody=0;strokeColor=inherit;top=0;left=0;bottom=0;right=0;collapsible=0;dropTarget=0;fillColor=none;points=[[0,0.5],[1,0.5]];portConstraint=eastwest;fontSize=16;" vertex="1" parent="xkjZHJFq0-rX7K31Djkl-48">
          <mxGeometry width="370" height="60" as="geometry" />
        </mxCell>
        <mxCell id="xkjZHJFq0-rX7K31Djkl-50" value="&lt;b style=&quot;border-color: var(--border-color); font-size: 10px;&quot;&gt;GameObject&lt;/b&gt;" style="shape=partialRectangle;html=1;whiteSpace=wrap;connectable=0;strokeColor=inherit;overflow=hidden;fillColor=none;top=0;left=0;bottom=0;right=0;pointerEvents=1;fontSize=16;" vertex="1" parent="xkjZHJFq0-rX7K31Djkl-49">
          <mxGeometry width="100" height="60" as="geometry">
            <mxRectangle width="100" height="60" as="alternateBounds" />
          </mxGeometry>
        </mxCell>
        <mxCell id="xkjZHJFq0-rX7K31Djkl-51" value="&lt;span style=&quot;font-size: 10px;&quot;&gt;Grundlegendes Element. Alles in der Hierarchy ist ein GameObject.&lt;br&gt;&lt;b&gt;Erstellung&lt;/b&gt;: Rechtsklick in Hierarchy &amp;gt; Create Empty&lt;br&gt;&lt;/span&gt;" style="shape=partialRectangle;html=1;whiteSpace=wrap;connectable=0;strokeColor=inherit;overflow=hidden;fillColor=none;top=0;left=0;bottom=0;right=0;pointerEvents=1;fontSize=16;align=left;" vertex="1" parent="xkjZHJFq0-rX7K31Djkl-49">
          <mxGeometry x="100" width="270" height="60" as="geometry">
            <mxRectangle width="270" height="60" as="alternateBounds" />
          </mxGeometry>
        </mxCell>
        <mxCell id="xkjZHJFq0-rX7K31Djkl-52" value="" style="shape=tableRow;horizontal=0;startSize=0;swimlaneHead=0;swimlaneBody=0;strokeColor=inherit;top=0;left=0;bottom=0;right=0;collapsible=0;dropTarget=0;fillColor=none;points=[[0,0.5],[1,0.5]];portConstraint=eastwest;fontSize=16;" vertex="1" parent="xkjZHJFq0-rX7K31Djkl-48">
          <mxGeometry y="60" width="370" height="60" as="geometry" />
        </mxCell>
        <mxCell id="xkjZHJFq0-rX7K31Djkl-53" value="&lt;span style=&quot;font-size: 10px;&quot;&gt;&lt;b&gt;Komponenten&lt;/b&gt;&lt;/span&gt;" style="shape=partialRectangle;html=1;whiteSpace=wrap;connectable=0;strokeColor=#6c8ebf;overflow=hidden;fillColor=#dae8fc;top=0;left=0;bottom=0;right=0;pointerEvents=1;fontSize=16;" vertex="1" parent="xkjZHJFq0-rX7K31Djkl-52">
          <mxGeometry width="100" height="60" as="geometry">
            <mxRectangle width="100" height="60" as="alternateBounds" />
          </mxGeometry>
        </mxCell>
        <mxCell id="xkjZHJFq0-rX7K31Djkl-54" value="&lt;span style=&quot;font-size: 10px;&quot;&gt;Definieren Verhalten von GameObjects&lt;br&gt;Werden im Inspector angezeigt, hinzugefügt oder entfernt&lt;br&gt;&lt;b&gt;Erstellung&lt;/b&gt;: Rechtsklick im Project-Tab &amp;gt; Create &amp;gt; C# Script&lt;br&gt;&lt;/span&gt;" style="shape=partialRectangle;html=1;whiteSpace=wrap;connectable=0;strokeColor=#6c8ebf;overflow=hidden;fillColor=#dae8fc;top=0;left=0;bottom=0;right=0;pointerEvents=1;fontSize=16;align=left;" vertex="1" parent="xkjZHJFq0-rX7K31Djkl-52">
          <mxGeometry x="100" width="270" height="60" as="geometry">
            <mxRectangle width="270" height="60" as="alternateBounds" />
          </mxGeometry>
        </mxCell>
        <mxCell id="xkjZHJFq0-rX7K31Djkl-69" style="shape=tableRow;horizontal=0;startSize=0;swimlaneHead=0;swimlaneBody=0;strokeColor=inherit;top=0;left=0;bottom=0;right=0;collapsible=0;dropTarget=0;fillColor=none;points=[[0,0.5],[1,0.5]];portConstraint=eastwest;fontSize=16;" vertex="1" parent="xkjZHJFq0-rX7K31Djkl-48">
          <mxGeometry y="120" width="370" height="40" as="geometry" />
        </mxCell>
        <mxCell id="xkjZHJFq0-rX7K31Djkl-70" value="&lt;font size=&quot;1&quot;&gt;&lt;b&gt;Sprites&lt;/b&gt;&lt;/font&gt;" style="shape=partialRectangle;html=1;whiteSpace=wrap;connectable=0;strokeColor=#6c8ebf;overflow=hidden;fillColor=none;top=0;left=0;bottom=0;right=0;pointerEvents=1;fontSize=16;" vertex="1" parent="xkjZHJFq0-rX7K31Djkl-69">
          <mxGeometry width="100" height="40" as="geometry">
            <mxRectangle width="100" height="40" as="alternateBounds" />
          </mxGeometry>
        </mxCell>
        <mxCell id="xkjZHJFq0-rX7K31Djkl-71" value="&lt;font style=&quot;font-size: 10px;&quot;&gt;2D-Bilder, welche Objekte, Charaktere, Hintergründe, etc. darstellt&lt;/font&gt;" style="shape=partialRectangle;html=1;whiteSpace=wrap;connectable=0;strokeColor=#6c8ebf;overflow=hidden;fillColor=none;top=0;left=0;bottom=0;right=0;pointerEvents=1;fontSize=16;align=left;" vertex="1" parent="xkjZHJFq0-rX7K31Djkl-69">
          <mxGeometry x="100" width="270" height="40" as="geometry">
            <mxRectangle width="270" height="40" as="alternateBounds" />
          </mxGeometry>
        </mxCell>
        <mxCell id="xkjZHJFq0-rX7K31Djkl-67" value="" style="rounded=1;whiteSpace=wrap;html=1;arcSize=3;fillColor=none;strokeColor=#6c8ebf;" vertex="1" parent="1">
          <mxGeometry x="10" y="280" width="370" height="160" as="geometry" />
        </mxCell>
        <mxCell id="xkjZHJFq0-rX7K31Djkl-68" value="&lt;font style=&quot;font-size: 15px;&quot;&gt;&lt;b&gt;Basics - Code&lt;/b&gt;&lt;/font&gt;" style="rounded=1;whiteSpace=wrap;html=1;fillColor=#dae8fc;strokeColor=#6c8ebf;" vertex="1" parent="1">
          <mxGeometry x="10" y="460" width="370" height="20" as="geometry" />
        </mxCell>
        <mxCell id="xkjZHJFq0-rX7K31Djkl-72" value="" style="shape=table;startSize=0;container=1;collapsible=0;childLayout=tableLayout;fontSize=16;arcSize=19;swimlaneFillColor=none;fillColor=none;strokeColor=none;" vertex="1" parent="1">
          <mxGeometry x="10" y="490" width="370" height="199.9999999999999" as="geometry" />
        </mxCell>
        <mxCell id="xkjZHJFq0-rX7K31Djkl-79" style="shape=tableRow;horizontal=0;startSize=0;swimlaneHead=0;swimlaneBody=0;strokeColor=inherit;top=0;left=0;bottom=0;right=0;collapsible=0;dropTarget=0;fillColor=none;points=[[0,0.5],[1,0.5]];portConstraint=eastwest;fontSize=16;" vertex="1" parent="xkjZHJFq0-rX7K31Djkl-72">
          <mxGeometry width="370" height="30" as="geometry" />
        </mxCell>
        <mxCell id="xkjZHJFq0-rX7K31Djkl-80" value="&lt;font size=&quot;1&quot;&gt;&lt;b&gt;Awake()&lt;/b&gt;&lt;/font&gt;" style="shape=partialRectangle;html=1;whiteSpace=wrap;connectable=0;strokeColor=#6c8ebf;overflow=hidden;fillColor=none;top=0;left=0;bottom=0;right=0;pointerEvents=1;fontSize=16;" vertex="1" parent="xkjZHJFq0-rX7K31Djkl-79">
          <mxGeometry width="100" height="30" as="geometry">
            <mxRectangle width="100" height="30" as="alternateBounds" />
          </mxGeometry>
        </mxCell>
        <mxCell id="xkjZHJFq0-rX7K31Djkl-81" value="&lt;span style=&quot;font-size: 10px;&quot;&gt;Aufruf bei Skriptinitialisierung genau einmal noch vor Start()&lt;/span&gt;" style="shape=partialRectangle;html=1;whiteSpace=wrap;connectable=0;strokeColor=#6c8ebf;overflow=hidden;fillColor=none;top=0;left=0;bottom=0;right=0;pointerEvents=1;fontSize=16;align=left;" vertex="1" parent="xkjZHJFq0-rX7K31Djkl-79">
          <mxGeometry x="100" width="270" height="30" as="geometry">
            <mxRectangle width="270" height="30" as="alternateBounds" />
          </mxGeometry>
        </mxCell>
        <mxCell id="xkjZHJFq0-rX7K31Djkl-73" value="" style="shape=tableRow;horizontal=0;startSize=0;swimlaneHead=0;swimlaneBody=0;strokeColor=inherit;top=0;left=0;bottom=0;right=0;collapsible=0;dropTarget=0;fillColor=none;points=[[0,0.5],[1,0.5]];portConstraint=eastwest;fontSize=16;" vertex="1" parent="xkjZHJFq0-rX7K31Djkl-72">
          <mxGeometry y="30" width="370" height="60" as="geometry" />
        </mxCell>
        <mxCell id="xkjZHJFq0-rX7K31Djkl-74" value="&lt;b style=&quot;border-color: var(--border-color); font-size: 10px;&quot;&gt;Start()&lt;/b&gt;" style="shape=partialRectangle;html=1;whiteSpace=wrap;connectable=0;strokeColor=#6c8ebf;overflow=hidden;fillColor=#dae8fc;top=0;left=0;bottom=0;right=0;pointerEvents=1;fontSize=16;" vertex="1" parent="xkjZHJFq0-rX7K31Djkl-73">
          <mxGeometry width="100" height="60" as="geometry">
            <mxRectangle width="100" height="60" as="alternateBounds" />
          </mxGeometry>
        </mxCell>
        <mxCell id="xkjZHJFq0-rX7K31Djkl-75" value="&lt;span style=&quot;font-size: 10px;&quot;&gt;Aufruf genau einmal bei Script Initialisierung und wenn das GameObject aktiviert ist (zu Beginn des Spiels oder wenn das GameObject aktiviert wird)&lt;br&gt;&lt;/span&gt;" style="shape=partialRectangle;html=1;whiteSpace=wrap;connectable=0;strokeColor=#6c8ebf;overflow=hidden;fillColor=#dae8fc;top=0;left=0;bottom=0;right=0;pointerEvents=1;fontSize=16;align=left;" vertex="1" parent="xkjZHJFq0-rX7K31Djkl-73">
          <mxGeometry x="100" width="270" height="60" as="geometry">
            <mxRectangle width="270" height="60" as="alternateBounds" />
          </mxGeometry>
        </mxCell>
        <mxCell id="xkjZHJFq0-rX7K31Djkl-76" value="" style="shape=tableRow;horizontal=0;startSize=0;swimlaneHead=0;swimlaneBody=0;strokeColor=inherit;top=0;left=0;bottom=0;right=0;collapsible=0;dropTarget=0;fillColor=none;points=[[0,0.5],[1,0.5]];portConstraint=eastwest;fontSize=16;" vertex="1" parent="xkjZHJFq0-rX7K31Djkl-72">
          <mxGeometry y="90" width="370" height="30" as="geometry" />
        </mxCell>
        <mxCell id="xkjZHJFq0-rX7K31Djkl-77" value="&lt;span style=&quot;font-size: 10px;&quot;&gt;&lt;b&gt;Update()&lt;/b&gt;&lt;/span&gt;" style="shape=partialRectangle;html=1;whiteSpace=wrap;connectable=0;strokeColor=#6c8ebf;overflow=hidden;fillColor=none;top=0;left=0;bottom=0;right=0;pointerEvents=1;fontSize=16;" vertex="1" parent="xkjZHJFq0-rX7K31Djkl-76">
          <mxGeometry width="100" height="30" as="geometry">
            <mxRectangle width="100" height="30" as="alternateBounds" />
          </mxGeometry>
        </mxCell>
        <mxCell id="xkjZHJFq0-rX7K31Djkl-78" value="&lt;span style=&quot;font-size: 10px;&quot;&gt;Aufruf in jedem Frame&lt;br&gt;&lt;/span&gt;" style="shape=partialRectangle;html=1;whiteSpace=wrap;connectable=0;strokeColor=#6c8ebf;overflow=hidden;fillColor=none;top=0;left=0;bottom=0;right=0;pointerEvents=1;fontSize=16;align=left;" vertex="1" parent="xkjZHJFq0-rX7K31Djkl-76">
          <mxGeometry x="100" width="270" height="30" as="geometry">
            <mxRectangle width="270" height="30" as="alternateBounds" />
          </mxGeometry>
        </mxCell>
        <mxCell id="xkjZHJFq0-rX7K31Djkl-95" style="shape=tableRow;horizontal=0;startSize=0;swimlaneHead=0;swimlaneBody=0;strokeColor=inherit;top=0;left=0;bottom=0;right=0;collapsible=0;dropTarget=0;fillColor=none;points=[[0,0.5],[1,0.5]];portConstraint=eastwest;fontSize=16;" vertex="1" parent="xkjZHJFq0-rX7K31Djkl-72">
          <mxGeometry y="120" width="370" height="40" as="geometry" />
        </mxCell>
        <mxCell id="xkjZHJFq0-rX7K31Djkl-96" value="&lt;font style=&quot;font-size: 10px;&quot;&gt;&lt;b&gt;gameObject&lt;/b&gt;&lt;/font&gt;" style="shape=partialRectangle;html=1;whiteSpace=wrap;connectable=0;strokeColor=#6c8ebf;overflow=hidden;fillColor=#dae8fc;top=0;left=0;bottom=0;right=0;pointerEvents=1;fontSize=16;" vertex="1" parent="xkjZHJFq0-rX7K31Djkl-95">
          <mxGeometry width="100" height="40" as="geometry">
            <mxRectangle width="100" height="40" as="alternateBounds" />
          </mxGeometry>
        </mxCell>
        <mxCell id="xkjZHJFq0-rX7K31Djkl-97" value="&lt;font style=&quot;font-size: 10px;&quot;&gt;Kleingeschrieben ist es das GameObject an welchem das Skript dranhängt&lt;/font&gt;" style="shape=partialRectangle;html=1;whiteSpace=wrap;connectable=0;strokeColor=#6c8ebf;overflow=hidden;fillColor=#dae8fc;top=0;left=0;bottom=0;right=0;pointerEvents=1;fontSize=16;align=left;" vertex="1" parent="xkjZHJFq0-rX7K31Djkl-95">
          <mxGeometry x="100" width="270" height="40" as="geometry">
            <mxRectangle width="270" height="40" as="alternateBounds" />
          </mxGeometry>
        </mxCell>
        <mxCell id="xkjZHJFq0-rX7K31Djkl-98" style="shape=tableRow;horizontal=0;startSize=0;swimlaneHead=0;swimlaneBody=0;strokeColor=inherit;top=0;left=0;bottom=0;right=0;collapsible=0;dropTarget=0;fillColor=none;points=[[0,0.5],[1,0.5]];portConstraint=eastwest;fontSize=16;" vertex="1" parent="xkjZHJFq0-rX7K31Djkl-72">
          <mxGeometry y="160" width="370" height="40" as="geometry" />
        </mxCell>
        <mxCell id="xkjZHJFq0-rX7K31Djkl-99" value="&lt;font style=&quot;font-size: 10px;&quot;&gt;&lt;b&gt;transform&lt;/b&gt;&lt;/font&gt;" style="shape=partialRectangle;html=1;whiteSpace=wrap;connectable=0;strokeColor=#6c8ebf;overflow=hidden;fillColor=none;top=0;left=0;bottom=0;right=0;pointerEvents=1;fontSize=16;" vertex="1" parent="xkjZHJFq0-rX7K31Djkl-98">
          <mxGeometry width="100" height="40" as="geometry">
            <mxRectangle width="100" height="40" as="alternateBounds" />
          </mxGeometry>
        </mxCell>
        <mxCell id="xkjZHJFq0-rX7K31Djkl-100" value="&lt;font style=&quot;font-size: 10px;&quot;&gt;Kleingeschrieben ist es die Transform-Komponente des GameObjects an welchem das Skript dranhängt&lt;/font&gt;" style="shape=partialRectangle;html=1;whiteSpace=wrap;connectable=0;strokeColor=#6c8ebf;overflow=hidden;fillColor=none;top=0;left=0;bottom=0;right=0;pointerEvents=1;fontSize=16;align=left;" vertex="1" parent="xkjZHJFq0-rX7K31Djkl-98">
          <mxGeometry x="100" width="270" height="40" as="geometry">
            <mxRectangle width="270" height="40" as="alternateBounds" />
          </mxGeometry>
        </mxCell>
        <mxCell id="xkjZHJFq0-rX7K31Djkl-82" value="" style="rounded=1;whiteSpace=wrap;html=1;arcSize=3;fillColor=none;strokeColor=#6c8ebf;" vertex="1" parent="1">
          <mxGeometry x="10" y="490" width="370" height="210" as="geometry" />
        </mxCell>
        <mxCell id="xkjZHJFq0-rX7K31Djkl-83" value="&lt;font size=&quot;1&quot; style=&quot;&quot;&gt;&lt;b style=&quot;font-size: 16px;&quot;&gt;Transform - Position, Rotation, Skalierung&lt;/b&gt;&lt;/font&gt;" style="rounded=1;whiteSpace=wrap;html=1;fillColor=#dae8fc;strokeColor=#6c8ebf;" vertex="1" parent="1">
          <mxGeometry x="400" y="10" width="370" height="20" as="geometry" />
        </mxCell>
        <mxCell id="xkjZHJFq0-rX7K31Djkl-84" value="" style="shape=table;startSize=0;container=1;collapsible=0;childLayout=tableLayout;fontSize=16;arcSize=19;swimlaneFillColor=none;fillColor=none;strokeColor=none;" vertex="1" parent="1">
          <mxGeometry x="400" y="40" width="370" height="250" as="geometry" />
        </mxCell>
        <mxCell id="xkjZHJFq0-rX7K31Djkl-85" style="shape=tableRow;horizontal=0;startSize=0;swimlaneHead=0;swimlaneBody=0;strokeColor=inherit;top=0;left=0;bottom=0;right=0;collapsible=0;dropTarget=0;fillColor=none;points=[[0,0.5],[1,0.5]];portConstraint=eastwest;fontSize=16;" vertex="1" parent="xkjZHJFq0-rX7K31Djkl-84">
          <mxGeometry width="370" height="140" as="geometry" />
        </mxCell>
        <mxCell id="xkjZHJFq0-rX7K31Djkl-86" value="&lt;font size=&quot;1&quot;&gt;&lt;b&gt;Position&lt;/b&gt;&lt;/font&gt;" style="shape=partialRectangle;html=1;whiteSpace=wrap;connectable=0;strokeColor=#6c8ebf;overflow=hidden;fillColor=none;top=0;left=0;bottom=0;right=0;pointerEvents=1;fontSize=16;" vertex="1" parent="xkjZHJFq0-rX7K31Djkl-85">
          <mxGeometry width="100" height="140" as="geometry">
            <mxRectangle width="100" height="140" as="alternateBounds" />
          </mxGeometry>
        </mxCell>
        <mxCell id="xkjZHJFq0-rX7K31Djkl-87" value="&lt;span style=&quot;font-size: 10px;&quot;&gt;Global:&amp;nbsp;&lt;br&gt;&lt;/span&gt;&lt;span style=&quot;font-size: 10px;&quot;&gt;&lt;br&gt;&lt;br&gt;Lokal:&lt;br&gt;&lt;br&gt;&lt;br&gt;&lt;/span&gt;" style="shape=partialRectangle;html=1;whiteSpace=wrap;connectable=0;strokeColor=#6c8ebf;overflow=hidden;fillColor=none;top=0;left=0;bottom=0;right=0;pointerEvents=1;fontSize=16;align=left;" vertex="1" parent="xkjZHJFq0-rX7K31Djkl-85">
          <mxGeometry x="100" width="270" height="140" as="geometry">
            <mxRectangle width="270" height="140" as="alternateBounds" />
          </mxGeometry>
        </mxCell>
        <mxCell id="xkjZHJFq0-rX7K31Djkl-88" value="" style="shape=tableRow;horizontal=0;startSize=0;swimlaneHead=0;swimlaneBody=0;strokeColor=inherit;top=0;left=0;bottom=0;right=0;collapsible=0;dropTarget=0;fillColor=none;points=[[0,0.5],[1,0.5]];portConstraint=eastwest;fontSize=16;" vertex="1" parent="xkjZHJFq0-rX7K31Djkl-84">
          <mxGeometry y="140" width="370" height="80" as="geometry" />
        </mxCell>
        <mxCell id="xkjZHJFq0-rX7K31Djkl-89" value="&lt;b style=&quot;border-color: var(--border-color); font-size: 10px;&quot;&gt;Start()&lt;/b&gt;" style="shape=partialRectangle;html=1;whiteSpace=wrap;connectable=0;strokeColor=#6c8ebf;overflow=hidden;fillColor=#dae8fc;top=0;left=0;bottom=0;right=0;pointerEvents=1;fontSize=16;" vertex="1" parent="xkjZHJFq0-rX7K31Djkl-88">
          <mxGeometry width="100" height="80" as="geometry">
            <mxRectangle width="100" height="80" as="alternateBounds" />
          </mxGeometry>
        </mxCell>
        <mxCell id="xkjZHJFq0-rX7K31Djkl-90" value="&lt;span style=&quot;font-size: 10px;&quot;&gt;Aufruf genau einmal bei Script Initialisierung und wenn das GameObject aktiviert ist (zu Beginn des Spiels oder wenn das GameObject aktiviert wird)&lt;br&gt;&lt;/span&gt;" style="shape=partialRectangle;html=1;whiteSpace=wrap;connectable=0;strokeColor=#6c8ebf;overflow=hidden;fillColor=#dae8fc;top=0;left=0;bottom=0;right=0;pointerEvents=1;fontSize=16;align=left;" vertex="1" parent="xkjZHJFq0-rX7K31Djkl-88">
          <mxGeometry x="100" width="270" height="80" as="geometry">
            <mxRectangle width="270" height="80" as="alternateBounds" />
          </mxGeometry>
        </mxCell>
        <mxCell id="xkjZHJFq0-rX7K31Djkl-91" value="" style="shape=tableRow;horizontal=0;startSize=0;swimlaneHead=0;swimlaneBody=0;strokeColor=inherit;top=0;left=0;bottom=0;right=0;collapsible=0;dropTarget=0;fillColor=none;points=[[0,0.5],[1,0.5]];portConstraint=eastwest;fontSize=16;" vertex="1" parent="xkjZHJFq0-rX7K31Djkl-84">
          <mxGeometry y="220" width="370" height="30" as="geometry" />
        </mxCell>
        <mxCell id="xkjZHJFq0-rX7K31Djkl-92" value="&lt;span style=&quot;font-size: 10px;&quot;&gt;&lt;b&gt;Update()&lt;/b&gt;&lt;/span&gt;" style="shape=partialRectangle;html=1;whiteSpace=wrap;connectable=0;strokeColor=#6c8ebf;overflow=hidden;fillColor=none;top=0;left=0;bottom=0;right=0;pointerEvents=1;fontSize=16;" vertex="1" parent="xkjZHJFq0-rX7K31Djkl-91">
          <mxGeometry width="100" height="30" as="geometry">
            <mxRectangle width="100" height="30" as="alternateBounds" />
          </mxGeometry>
        </mxCell>
        <mxCell id="xkjZHJFq0-rX7K31Djkl-93" value="&lt;span style=&quot;font-size: 10px;&quot;&gt;Aufruf in jedem Frame&lt;br&gt;&lt;/span&gt;" style="shape=partialRectangle;html=1;whiteSpace=wrap;connectable=0;strokeColor=#6c8ebf;overflow=hidden;fillColor=none;top=0;left=0;bottom=0;right=0;pointerEvents=1;fontSize=16;align=left;" vertex="1" parent="xkjZHJFq0-rX7K31Djkl-91">
          <mxGeometry x="100" width="270" height="30" as="geometry">
            <mxRectangle width="270" height="30" as="alternateBounds" />
          </mxGeometry>
        </mxCell>
        <mxCell id="xkjZHJFq0-rX7K31Djkl-94" value="Basic Klassen: Vector2, Vector3, GameObject, Mathf, Time, Transform,&amp;nbsp;&amp;nbsp;" style="text;html=1;align=center;verticalAlign=middle;whiteSpace=wrap;rounded=0;" vertex="1" parent="1">
          <mxGeometry x="1060" y="720" width="60" height="30" as="geometry" />
        </mxCell>
        <mxCell id="xkjZHJFq0-rX7K31Djkl-104" value="" style="shape=image;verticalLabelPosition=bottom;labelBackgroundColor=default;verticalAlign=top;aspect=fixed;imageAspect=0;image=data:image/png,iVBORw0KGgoAAAANSUhEUgAAAWsAAAAVCAYAAACAGc99AAAAAXNSR0IArs4c6QAAAARnQU1BAACxjwv8YQUAAAAJcEhZcwAADsMAAA7DAcdvqGQAAAspSURBVHhe7ZxtbFVFGsf/7DdJyILclrYRtMqbXFiB4CK0CmWlyRoDpHeRUhIDgqxRk0YiAWl5ta0gGxfCi0KABpMWCrQCVs22u0BZKLA1LQjlJQoFkbbcVtGY8PXsM+c859w5p+e+30Kr8zOTe56ZOXPmTC/P/OeZufbRCCgUCoWiR/MH/lQoFApFD0Y5a4VCoegFKGetUCgUvQDlrBUKhaIX0Hud9defos+AtZw2o7yV83/LtH4Jn3jfjU2cEQ1NKBb3LvgS7Zyj+J1z4Z8oXFKJDjZ/+/hRsX0u+n7AaX8z53cvl7cmofwCG3EQ/DSIcAzeTrx771VM4qyeg3A8R4Ha1SiYwFm/B/S/SQOqVsyAtnQcZzJi8trmQVvpS0jhLDvGmBXOejZEHQXQiUNbq1AzJgc7p3g4z6Dp4E58nNw1PyauVGPEfwbg9NsZSEBrAUS7FZJy8b6Aa7NHsiHhr8TmmdV45kgppiZzXjjOl6LvVzVsEOmFuJ/rZSMB2NofhtL56zAnlc0wnNs/F1ktbOh0vf9u7Sqkf5uJljezMYjzEkK4fscy1m4IZ+3KnS+0nP57tXo2exQ9uW8Pi4a9GuZ/obWxqYidjhPl2vAtp7QOtg2uaOtXl2sH7Zmxc/lzl2ckmg7t4JYd2usnnE+5qx1/x6Nt+vwu27FwV9u/LVfLrYmnDYnWf2m5JSu1/a2G2V6zUnukZI921jDDcnZfrra+iY0giDoJ66/FJW291M+g/T7/kVbwziHNz2YsuIRBeLksFBxaMNkt1CBUnFhOm8tykWxL83aULzDvo2Rbeov2P8UZ+V7H0ry9cnPgXkrFX3OBSWsn9S0Icrsiyf3Sy+jZ5juKZD3b6Fc5P9tX2cTvEGGIRYwJPUvuu6/SHnA4s5GfqSdnu44x0/sZQL7X1q75vtNJVhxuQKrL/bbxdAuhhBqzCN6ru2jfB/gonXmfloB9jFR8lguZ8lcCZX2ononId9YVFFO98h/YCILHOwRTOr/HiU7OEFz5Dns8QzDVksFXsWHNTozgtLhOriwQCj1QPmJNNX3DRPZpLBa2UL+dzchwlgvMOmY6eJULCL1M1JWev/U0Pc0ND55yk5AXyvBvfIK8l+ORecl44lG+TADn6kpxJH2OpUgHTZ+D1ajBifOGHT9+3PyJLxOKF8veW4CJbA0anYmZ5DdvtnGGyTPz8CLeQK1rOOQStmZmInP7JbaDwE67K6HUq1Bx/ddQ4nK97iat7I5eqrUd2mtdk6WVzV+j5RwyNV+jViTfy3ZRg26EfG7boU38XEf6sJFrONpi23q23ra4x+yrXJ/7Jdri9xP59R/KfQ+BOSZmX7qMCfVdUr7GuwTeU7et9whO0P5EoKzdnxFmzJzvpdtBvhcJpq1chOg0LYc+LXs2fRqmVr+ObEomZVRm1hVl5rVMEbVXdpuNoHRVpI0HZNtZLlT3Dm39ZTa5fPiBK2y7EFRZO9sybOtZHae018kebql8Z30Z99VA85Z4VbVAKMqAEo4PQ6UHlLFhP1ISuRIOrqxFP4227ClRfXfgWCHI+D+frxVs+R9bMhe1LRkZWsa2i2y7E8cGY3+UNXM8O208fLN+RgsrxRTfq8hLM67JwrSX+6PqhjzVSPdiHKatABpvyWqtBcecappI8eVDu7caWm06WemoF9cicfy2vfKkHpNdaMWxx6GA6lZVN9qUe1FtPvfP+Wzq1zyOBdvaiRARDzZjybYxacLuRT+j6K1ArDjFNwdlsxzvWXLRpqYfBBGNmfxeE8agCPesv3VIfiiHjyRvH2d6P4q3XAdUzjUuU54Hcg6Kb4fBsVVA/Uo2iLwlQNVnYo1C346hRp7AUtmkqBvpI/0xPTsEHkwd0w91F6+xYr2KmuZ+yPayrO68RprPixIrdj0SC7P6Yc8lVsBXzqKgMw373WLFYeisayIF78XCpzmD2l42J03qi8Frc+bib/rjR1K/gOv+QGln3T5W5SexxzuO65n44b8BJA2OTVWLuK+xQVeEtZISThQi9tz3g3wcHrYZLROG4ciPkW9/rv0qsHk4t9bPuUL57sP99zaj9I/AzAmb6VrYkcfDI8ePis/sKwSZpMF/Am5877KhOxpvnzqFU2+OZtud2J31rGGYJjnkvFJps8+xrE4lRxUxaS+hkpxF4XS+P9rTC6NSw2yepWOa5IQnLV2NSl/3bbfJE0G6NV5dERNR/YpA2OlBhRp0wo5ZjDyWh0oSvyQK7GllAras2fFONkMgIknNptB8XvUdXVC9ljH0aXr42eIbEB5bKMQZAum4hzpbCGMnMo7/yoXkLP107RmAwWxHzaCBYTYd05BtOXOaXmcvtm16eqbMxbU1i/V0OrnJESa5hdZQc+XZYvvE+kq57d/foOnr2NntQ8vACvTdXoO7XBYvwtluGmg4033Tk3Hzx28xc2ASl4ZmYq7RJyMVYuzX+ZLDfjCc25+PBfRfS7BN19QhSDrj5qwjoxuO7jWh2NsA7Pq7oXopte3qz2URMuFV6976UQ1IjcZhX26z1W2/dY+vHg7jHzfdYGDlYdCGlsN8yYiJw3jvGRi/aMeDc9jdNWaJUNZhqNcDJVI6IKQDQeo55yJw5r90PZ0cNDnudnLcVeS4I5qYPCOQ7fmVFHUnmi61YsqYEXYHSur3NDtEK7GS9iT30z9j5u6PNhWtO/8YMSade7jNNvA40kLNlc8VBCZVkQ7kBR0vPT77yx3cZDt2OP6dXqg7aQMjxjw2KZYVgBdTI5mRE4hxGiUbx0OdNGkjRz2JHDab0RLcWaelYnyQcEQkWE6KVPZb0ShrB+lPRu7oUyYNQ87hBuy2+tw1/BA3pvII43DaKysw77Cp4o1wS+G2wKTTNfwgk4r0WXwZKWkeevdvcSyS8IREt45ZdyprcsY+UsmTpU1FN1rISU97zlDTu2vJgUvhkdCYoZBafCyHQARPD8VrpKxXdNlUZMKVC5IGdN3EJAzn2ozdVzgDV7GbVPtrf4ntiF/T8WbUeYfSN9AkGclP0uLgdvyq09gU/LO1uabjr8ZSsVn2bjWi2c+bODKb/lhF2GBuKJ7/Agt+ycbUsWzrmOekV6HCuYEnc76UHOcwzBodjaP/CdXvUr8zl6I6yqGxHLW00ehGx+1vgCfdnDVvMIYZsxDK2ohdWuGIiH94Mg4LSUlb93k74YtCWTtPgqQuGoD6SM8FixBK87NotPp8FI2k8B/YWWzpNIbeb+mMulDN+irB9b2cJ0F2YN6oGVJ4JnB6ZXIJqUNS3eLaprzp3bftAuZ5zTbM0yCBtvVwVMlRo9w88fGwxywO8khFl5F6prnTSuL0iA458/EHaTzoUvwNJpG6LlxFeVEoLsNx/oo62ykQwUgsW/MCnjpeZYVBRNpgOVi3cum0h8CTgZIsoMA6McLllL/zbS+uV5j5J3E9KwfLpLBHKALxaiPlous561HPr0BHcRkusx0pgXi1kbLgcs46eTKm0OSIszcRlW4YuwD3/5odiDt/hbDOL0AzNkj9Mu6NNib9KCZniW/KGdyMZkHbVoNNeoitBllyH7r84MaP5mPVNPbPsi2Thif0MatDfYiJog8pHVo8KuIm7I9SFIqegh8nlnhxYVoz8uM6vufOpe2ZeOPGchz9x8vkAnsR32xF5pu3sLxqIxI+LOLXonuHIP8jn2sYJJIx64aYtUKh6NkkY+ryT4DiZTiRyD044exoOd/7HDWHIbrLUYtfML7xDV5c7uKooxgzpawThVLWit5GGLWnSAzi/w1y/vkO5D3DGTGinLVCoVD0AlQYRKFQKHoBylkrFApFjwf4P2Jrxg29dokRAAAAAElFTkSuQmCC;" vertex="1" parent="1">
          <mxGeometry x="810" y="185.5" width="363" height="21" as="geometry" />
        </mxCell>
        <mxCell id="xkjZHJFq0-rX7K31Djkl-105" value="" style="shape=image;verticalLabelPosition=bottom;labelBackgroundColor=default;verticalAlign=top;aspect=fixed;imageAspect=0;image=data:image/png,iVBORw0KGgoAAAANSUhEUgAAAVQAAAAXCAYAAABUKbfDAAAAAXNSR0IArs4c6QAAAARnQU1BAACxjwv8YQUAAAAJcEhZcwAADsMAAA7DAcdvqGQAAAqLSURBVHhe7Zx7TFVHHse/7H9tYlbXCwKptrj1Ua9u1ehaBVdhC8k2phLuKoiJEbWu2TYhNWt8gIIWWG03XYnoqlGJTQCRx1rFNisbha4iXQygckXTKlorjwuubUz679nfnDPn3jmHc98XH3U+ZnLOb+acOb8Z7v3Nd2bONUohIJFIJJKw+QU/SiQSiSRMZECVSCSSCCEDqkQikUQIGVAlEokkQjy/AfXKZ4gas5OnUlT28vyfM71fwMHa+0kHzwiGDhSze3O+QD/PkbzgXP078jfWYZCbP39cqD6wAi//lacTTp4P3CiLRuVVboSB94Cqfnk/w2VuPltQcEjtQVFjAZRHLOUiO54XvaiwAUYGywgwhNqyw1jfPMRtDx011vkh0d2AKWWX6GmRRvN/SiFPNTd5vglXHUo3XMPbWxyI5ll+6Sz3BCNTQIoIhvp3oLqP5wfA1ycEv7zcP9BYhhz617O1Cj+xlGXnJcC05QcxuCEHTS6eESrstSlLHpxVMkYfV1q4+UzxLPv2tGg7rmD1WaWPm5LQGWyqVCbvu6gMclujW9ldUKnUGDND58YZi2eED/P9vSa9VubzIcHWGVAufGhT9p4Z4HYoDCgn9mcpWefCqUOg919KVsl25USvZvaf2668VHJMadVMv7RWZSm7O7jhBXaNT387P1XyPqxVXNwMBQuFyqeG9jbUowcLrKbVuhrSp6AsGaah/ajM0e+jZFBOrH5SvuK9JmXVX1fquZdS8RVeoNM7RL55QayXJdEvt+rmbWTJ/WzNr0r+bEddB29DgMsJrE/oWaLvjjqjXrz8CX+mmsz1mvrMNDsQ7zXUq7eXFDtOtSHO4n5Df1otF/jqswDaNVL0VwEOSpc/AqKitFTcygs5lcs9ZVF0nQ7LN1/LKKbrKr/nhhds9glYNPQdmkT52P0tjtkmYLGN27iJPboKpDRcuZqUYmEDfcJY9iWsZ3Y1/fGHnEg0lzP0a/Qkqky1jF0rPF9QurZFK3B4ke7kVKSRCGt2mXy7WoF/4yCyl8TwjFCIwWu/4qcR4OvmcnyekInMOM0el5qJApxDU6dmh48Ld//HT73x5kq8jQ1otJz6d6EsKQlJB7q47QUeWIfjSwUyNTS6kBIvV6/dq1Q8UEuVvtrj7nOylIrVhUpGra6d2pUi8V5uF7Wphs/n9tXu5c81pY/b+RWmurjtfrZaN7tH91W8nvvF6uLtY/ktH4u++0DvE92XYX1CvgsKUmuLp52q7W6Hd7z6E4BCtX6Gnz4zt0u1vXwuIkxfJfvRiaJk0NFtL6OjZiotu8impFNBZfq1rEw/Fymi+iruc8Mrg0rNPqOyaz8p2uZyTQnuvsFNXj75ZDe3LfCqUM11mVTm4EXlPbInu9Wy+XojzG+zH8594apTRpeyW1CU4aGpXY/C1OyXSgJXwN4VKvNTq8uYrH13nVmt5O37L7dEriv7EhOVxP3XuW1NGJtSo1HhXIX57DR+NhzpP6CHK65YxyphTTMWKUtGo/6OuKAh3ItZSNkGtN8TVU8PzptVKRHryNXWTBsTyEpAi7p+SmnTLLW8v+4r5KfPxdo5qknMQh5dW9/QblDARY36mqv52eTXSq0uGOoJELqnj/ti7JMOHF33A4ref4d6QyPWkYmKdFM7S64/8TXrgPpMbNecGSjCI/ff2iffV8JB0jHKnD4KopW7gLoV2mnsQiCjhn06NM7vAFq2c4PI3gjU/5Npffp0vK7lMdxqlZRpOx0SXlGzfWDD4hmj0Hz9Fld+N3HOOYrUHld+Q7dIO9lRIijBtcmjcKyLK8nuVuQNxePEsqmaHQRDzR2khO1Y+wbPoLo3Z8YLvmisyVyBP6qP11TobbMKZXQ3IIv8Lk4W/XDBdQeIHh+aOh1o3MHXKIuwU1CUkUJbC83FqUml6JkzCZ8/DHzLbOeXnjXUFY36Yqgdm9U101KU/xJYOqdUWz/dusvS9+jxvwHufGexUTcdH1y8iIt/ns5ta0IPqOmTkCIEzezyAuTpX0rTFDKOgknAxL+DOvpC56fy+4PdaJkW5w5a1iQgRQiU8zcVoM7h+45wEIN1go+NMzZYtGzzLLE8qWm1it8+C5FXslFHIpIGbmParg2lYcGD4wJ9us+SUG0sjbn139IJXdczg456FF7GPgH+MUz7zdP9wUdoNkzXDyPxwmNeSEHRRee2MRjP7aAZN5ZCui/ikeYOuDQELlsvTPM5bGmgulcIvDr30OtrPGstNg5+yysN379xqbt4QKpCz9hqvHzgHAZ4WbiwgLh3rBbwqlJjcPfhN1g6NrAts3lZfKNJTfmYeSVXCKpBEDcB0ZetAmpgjMBrUx0otrcBR/7Ed+AL0HdkNC8LkDmr3Pe2TGtDXDBB9Uaf4dr+e4/42dNh9qt6qPIoeI0+9JzipxwW3LV2v4vZ6w49uaA6Un0WCYXqhxZ1UUBIJ9nwTpAKzbgOXP4PnadSEKXg2k/BtZ6Ca0CDh20K0myPSZkOoaOrF4tmTDEGOVKRlwrX45aYuCK1xYxSjyEz8NCgRtUAHQwsmJY5geQMbBYCr8ariPc1nr2V5xn4WDqZ7bW/xk1PwtIfH+Aut0OHr8cm5KuBVENb85wZHYqStmNxIKOmFX0UTOdTUOVmsHgPqPFxmO1l6h0I7kBCavX9YBSqiYSJgQfj2PmTkHGqDUfdPg+faoeNPoL7CQr9ddVYeUpXw9rSQv5+z8AwfKotEoeEdH4aKPE2avs3OB/IVFxgRPtsJBUqBUwHqc0FwkaUFT0USFPe0lTp0UYKssJSgG/0aX8j/iFO9xlvvI41pFC3eXuFyl85I3rM8I0vQlPGThzt5hm4iaOkftf8PtGPauUIwXSYalWJQcxEEtn3w30/SN9I+i3mcVvF1YBNbPPmLw3wtwckMm9qGv2xirBH34TqPIucH9OweCa3VfT3SP28UtVZjuSeSUifHnwwHrx/DZhoFVD5ppSfdvlQqNpamnvqHfDL87OwlhSp+z77EBxBKFTzDn/cujFoKQ/wy82WC5xz0e72+TTaSSm7lyJGGmGXXfX7kb5OrKlPVW1btsu8w38IK6e9KyxFeN5KWFBCKovUKzs3KFhq+/4jwEq7Xoe+y++pW116KTmtles7+U+7z8Igm9RoBalQGt/cib0VoEIBd3YN9Qedsr/BfFKp+TsoLwjlogW3x2g27O4zpmJz4e/w6wv1np14SnvcQdCqXNjFZ9gSUZIM5LnfBODllH/4AztuV+v5X+G2pdK0puOCE810bDY8uwq1QuCetnAbBosrcIPbgeJZP9VSMvIN73KqxCzAIhrA0HoXQY3tM3Pw0x/SPOugXwIXtuYYg7VXnNgj+KXda71G6hsXnOcbqH/mclskHq+p7WpGi4+xSP73fZGCvV6034a+QIO/RPLUcKFpox1XU5zIDevVKWu6DiRhw50tOP23JYjgm1UjD/vl2PEJyP3U+scOgbRrBNZQJRLJs00MFm85CBRvDv+XQSLXypBE0+LnMpj6+uVYEO2SCjVSSIUqed7wo8heJNhv+TsXDiL7TZ4RIjKgSiQSSYSQU36JRCKJEDKgSiQSSYSQAVUikUgihAyoEolEEhGA/wOOHtzEZV5stQAAAABJRU5ErkJggg==;" vertex="1" parent="1">
          <mxGeometry x="810" y="206.5" width="340" height="23" as="geometry" />
        </mxCell>
        <mxCell id="xkjZHJFq0-rX7K31Djkl-106" value="" style="shape=image;verticalLabelPosition=bottom;labelBackgroundColor=default;verticalAlign=top;aspect=fixed;imageAspect=0;image=data:image/png,iVBORw0KGgoAAAANSUhEUgAAAXgAAAATCAYAAACa2RaLAAAAAXNSR0IArs4c6QAAAARnQU1BAACxjwv8YQUAAAAJcEhZcwAADsMAAA7DAcdvqGQAAAtDSURBVHhe7ZxrbBTXFcf/7rdUQgFkjO0UyAIOxAsFI2gxODXQ2lIoSlxviV8SsQ0lUUGiibCiYCdQMA4PKcGKIQUBhkh+ADbhYYhiN7xqbFJHNhTWECWwAYrXjy1QIfXr9NyZO8+d3Z3ddQyY+UU3O+fembl3ztrn/u+Za2IEAjY2NjY2w46f8U8bGxsbm2GGHeBtbGxshilPZ4D/9nPEjPorL5Wo7eH1j40ubH5c4+k5DZfS9+do59VDSfv2yJ+7t7FSHPvmb3mFzTNOP869Owa1V7j5LHC5Gj//KI+XD3HIy+v7G1H5biMGuBkJ5gFeDBqPJ1iEhoJphgflLeshPGBlDfITedNjIwWl4lheQzmvGTISF6OR9e2eg2xepaKdeHjZ3sXbhoJe1BbZwXtQuN6EKRua6Bs14LuIlWb1EeFDQ9UebL3OzcFEHP8eXurQ4OP1BrqrnPj7xNPIn8ErQtKPQ7vk4GgIkIOC4f71bl5vAW8z8pRxBbreja1fNmP9q3X43/usbEROAm+KcyFj4tuorOrgFeHz9Cn4Hi864cCi2dy2CYk6Gb6Fmu4Tgx7kU0sin2jjXWvEsZXa32dwXp6MYvSg2RB8fe47OO+cTBLjSeYGth4C6jesxHdULi4ESqtMJqUrn6C2Zh3yV8/hFVaIQ86f5eBI5VUHig5U4xveGi3f1K9B0egyfv8yrPeUI6+ln7da4PkieOSxsZLr5A0c7z1cRiYWzOS2geTVbvzu1uKIVzSGAM8Vn7MDR+HBPEX5aZbfLD1SdBq92tSALmBIqk1RjOxc3iLdn1YG2mt17eqSXS5+6q/HR2MLgC5dQUU7LmVVolG1St/SuGp5367GLv4Mg5dukdIYcjG5ry7txMag9YpBiUccoOORv8oBVFxVV2fBfMYINi7dtfoVn/S8u1FwDCjLMLte+0zmfg7sM/YzxmztPYZuxbk5hsb2b8BFnzGsvMFGpOESr+ells5V6o3nEr11VL+JGwGZikyKDfuv3eA2w4dzVx+heNpUblPN+TqNUjYJojolvQcrz0tSuusIs4+ilMz9h/zbGdI5ctGrcNbGztX2r64EpuK9DUuUSSjWOR7peISbOhXfj3MHK5D8t3eQzGsiYuwLeJ0fRg0p8B2eJFSny0HZicLZSTj+/WX08Zqo6buH4/zQnDgseHMdug+ap2runypBWloJmgLNOWybpB/3TgnZIw8KbdzU0XFQwMgNVHi7eO4Ooeae2Cp4Gw4qx2QJNYUbhOwGL7c7hXLttdwu7xCNoP16G3bwfg1lWyc/w3Avbit9i/dm18hj1Z7Px8XuxZ+P1bdt047dCuw+qi9kxLEXniJvaGztc4p9+l8n07ZN6xPjc3JMfWdyrthXAP9zW/99BR6XQsDvTfr+/caqw7yP4D6T7qv6zPhz9tNSTr817DdHfl5ml7dz464gZJNdQ58iVK+cy9uMfvLW0jkbuRGM7pPCS+tPksc4A63Cn7S2oX3gXK3w0qetwgC3pfZa4YhSYWRAOPLpbmFLNzc1GO8l2pq+Og/vJpvK4eui7de3FnHchnH0NQg75n4suLkZKb3NHwjP1V3jVpR07Ree2/mV0MtN0a7IpbJfuMSrgtLzlZCrvV6DOE7xXoZiOvZ/CjVzC4WzfdzU8J+mtcL8+WuFkyZtjAhTNCNR416GVHaYOAuurIfwcHUV71qmWarHY9GSkTh6S5sU01xLc/qidUDnba2m8eCMSc5WXsoLLaRA4UCbmHKgUiLpgt7GCyjLmoPlylI/BaV07tGmTp1iKm+RUwnGvmlcBVxj6O4TLV3Yt+IhylctJm9IxLtyUJMlPyep0Z0eZO/NCZjiSC2R/cUw85lVSPFmsL4yxftZ89lDNLZH0lc0hPKZhPpdmv2cBaZ9Uwwpa2NxqUrbAjV36Xvhx4s20vfhkY57/0H/qwXyfyHZmEvnLgXOkHoH1c2SanVq3vMDkD1Zqg6KIU1jTM90XetBcY5GKaenoNh3B+dEpexDw9c9SF+YgT/Gis1hcAP7ztJK4bfzIV8am56BzbGGlFGsExeXSqsJUaX7HoDcZIDGUe+mcafox+G9g4HU8RjDzfBwYyvPcTvo50NV3IOEnEv/EjjL0jQUo360muf/bzUccv79IzV1NDZjI08pZZKVSfcNkMIRmYDE1CaWnfZj9O+3o7V1O5bE8QoDkQX4rCQs0gTx/GpNDtWw5E+gX1TLsBeGFGCUJb0hfROS5AQlIJijz92z3HGjK/gVg8NIOAIEb/rpgecY/eJPCDIOQ5pkXgWvt4iaIjmBzr1v6Z85qM8o4LvnACt28+uH8sV7MJ9FR+oHAuloY2lUg3IUsGB9NF9Nz7BScIQ3Eg4K9h6aSNpbaIKazuSMxCymW0KiTdMY0zM+3OzTp1embLiA/bxVbKdAPyku7OjOGYFJIaJv+vQpygSA2PnYo0nLyHQdOYpSqBOBzMDdf/EjM0gEvaGfkDezCVPBiffkAPl+Dn48kIetl3lTtLAAfeAe/iLeuwi/FnPmDrwovwgNRkIm6pRx1cEz24OFmiBvnTjETWQ+CiP3zxnkl6ykEJ0dAAUR6aXeenj3juRtFpm9TLm2LbkDCeEE+W6v7tze2w/40eNGXeFISEFdIgGOLH5oBpswdbuGyC+k4MNBe63fhBbKZ/IuHSrevQ8wb8iCfDCfRcdgKPhgZJOCpzlDV0pJyTMcLKhTP2euAsszJGXvoWOHxcklZRrNeu4f0OX7Ds2+RGS+zBs4xTnSi0y15HGlHItJkcZ2kUe4qUsCSxNGOLA8fa47EfWr1ZWAzJhxv+RHZpCIPKyfkGV/+uPEAposLw+EHwz9EPP5SagupMDOq8Sc+fMv4EVuhsPYaWkRvh/oR/8t5qMAMj0I5gE+MYGWkuapEisoapSC06pwFLwBx0Trk0N8ahKyj3VgnzJm/2V+1FzaLAWDTeGEOCmlUrZTnaj0qREpvVCWESxwatQsqflwFXwgwvVZ/IRR/Mgq8XAk07OfDfelcCifRcdPqeBTKWgzBR90smCy/Q/kHeqvk5S8hxS+1QAvp2k+qzfunonFgukjSMEH2jIZqp1Bk8BY44tcBl85fH2RwrqE73wX9sc6sdwwwQRCCe4mql4kYTzGtN+Jas+3CH8xmjVNHwyv7UpDWloaqoItFIwkzETW89+j6Itm/lK1H4famvF60kyQm1TkfexBt1DStV9U47jjV+pkYZnb6GlfwsKyH9JL1sDPFUDBS7lYdWlvdTdJCpaTYleuc/rgCkPBG3fQJKwYhbZqiwGaKU33HHQa0hFDsv1OSaGcQBkpzwInO1Z9xlJB4mokwHOx9wuSOpbHrtltQs+1dp18Tyo7Y1GjUfCKz3Q7nyyq7FA+M6SGYjIeaN6fWOs7teQ1lFecUO6hPFeUPntiIWUpkAMKxunTNLJPHJNp4qIJwPEKGRTUXaTey5aSLTVbQAq253363TOM2PQ8XFz4CLlKioZKlRqUzdq1u2QYKUt/g2L3Bb/2lKUrUT/Wjfm8fv7ZEaZK3BTfRXwmxr4e/diOaCaSuFcwI7UCLQG3gwRCzb+L5UArsgo1e8k509Jyxc/bd++Ln9ZgWzArUU3/SXn0NTiWVIm6DGtKuq/lQ3Vc/FrzHHsIrrSiO3UJnCbdjh43Qfysb70mfhqx/7ExGxubJ4Mrn6DsbSC/Pcqtkmb0N6Ekewsm7GrF6mDZoCcO9pe9TvS8OWD+x18hnmuQc/A2NjY2ETLjHeQXVKA2ir/c9Oc+mtamIe2pDO7B/rLX2nPZCt7GxuYJIoRifZZg/xbNFlrRfOyKcPuoHeBtbGxshi12isbGxsZmmGIHeBsbG5thCfB/eQb1TRtbtK4AAAAASUVORK5CYII=;" vertex="1" parent="1">
          <mxGeometry x="810" y="251" width="376" height="19" as="geometry" />
        </mxCell>
        <mxCell id="xkjZHJFq0-rX7K31Djkl-107" value="" style="shape=image;verticalLabelPosition=bottom;labelBackgroundColor=default;verticalAlign=top;aspect=fixed;imageAspect=0;image=data:image/png,iVBORw0KGgoAAAANSUhEUgAAAY4AAAAUCAYAAACajtrtAAAAAXNSR0IArs4c6QAAAARnQU1BAACxjwv8YQUAAAAJcEhZcwAADsMAAA7DAcdvqGQAAAu/SURBVHhe7Zx/bFRVFse/7H9uQgRTSourOAiiDP6ogV1r6xbYtIkuwW5nsaUkyg+XNUrCamiMUm0XSwVJXIgFF4MUTNqCtAhaMZbVglta3Jq2KlM0iiOw9Ocobkz237fnvnfez3kz8+ZHS13vx1znnXvfe/e+O+0953vuK5MUAhKJRCKReOQX/CmRSCQSiSek45BIJBJJQvw0Hccnb2DS1L9y2YnGAa6/avRiy9Uaz8BxBIy+30AXV48nXduTf+6hlp3q2Ld8whWSnzkjOPnUNDR+yubPgb56/PLFFVyex6FBrh9LRlqw86kWjLKZKO6OQ12Mrs4iFB9apAtDqDlRBeWKKBtQPoObrho52KSOZRlquGbcmPEAWkTfwYUo4SoTq0Pjsr2X28aDITSulk4hLZxrxdzqVvpGHYRPY51bfVKE0Vz3GradYzNtaPedW62XJjSHuclBf50f/5h1HOV3ckVcRnBot77ojsXC67j/wSDXe2CwDSuMcUW7Poht77Wh6v4m/PcZUTajNJubUiLOuDMDKJz1GHbWdXNFgojN8Qguv6uUTDmgdLI5oZjIY1N6lJopO5SGy2yOJ67zIsZTrdR0s6kMKg2rqhW81MP2WKP1Z/YvSZ5zytaqPcrWfjaZ0ZONyi1vnmMrVUaVw69E9pF2+t9Rbql6h346HfS9rGy652UlyGZS9O5Trqndp5xhM1XONJUp1zSdZeussrW2TClrG2Y7DgPvK2W73leG2HRFnJPG8eoMtT1nGWe0cQ8r7U9mKA19bCaAQ3FwhOrvxhGEcK8RqVrSECJNtPo4hqwpElsUq0WZRoQrzuUW7f6kZKzX2trN1IVeIqLVgTCNLQq2tA0V67gMFWWJwo2+tXE1ct+Bll5+hvSlnbR0jl5c7mtLv4kxWGfFoRySVg1ZKH/CB9R+bqrJWHMmiDUu27V2hao97x6sPApUFrpdb30m93mOPmfiZ0zY1nuMn0LeMonG9m8gQJ+TRHlIjMjCGa7n0kjnGvXOc4mhJqp/gY2o3IoiP7Dv7BdsC8I4+fmPWDP/Vrap5lSTJbJ3USKqcjGj/3WntNC/97Cwj2ATmfsORbYLtHP0YlcNok2ca+0/qnKZNhUFfGgygpMHajHv709iHtckxfTr8SAfpgwphh2hOagvoIlX8WPVgjk49lUfhrkmZYYv4xgfppPphZvRVJjJlh+L6Nf+2HfOxFQmFj3yLPoPuKesvn+3Avn5FWgd4Qor7EDsxIrquw8ooCgWert6rhllDzYfsETcWsRZ0jzIthYBG9c6I+IY/Q427+B+HcWInp3RtWYbfav3FtfoY7Wez+MS9+LnE/WdL1nH7gVxn0jFoY591bs0Gxbb+pxqn9GVSudL1jlxPifjSXEQal9R5p9t+/flQUFF/d68KA73PmLPGSsn4zrnz9nYUkO/NeI3R39eYdd0sXFJUUrIbqBPFao3zuU25zwNNtI5m9mIhTNSH+1Q/mS1He2jQo280kE6glHbG5XDRoWT6IrDeS/VtvTV8+Yesqmw+ono24La5lRJw83KjlTVBiEibVMhpIhQL1bFoKoZUiBeFUIMxaGOU72Xo6Rr7A7sysnKv5SGe1Yp7S4i6rvWjUpe3kblHZe2JDfHp6Ah+DByxeGMuxEo/gEhjgazAg9b9hyysGTpFBz5xpp0tFyLHCx5Fui5YI3BQvjQJSeeFdig7WmcINcJHzrVPQUqFTlq+1DLR6gsXoi1C1STyMEmOvdIa48twqs5oe+JOPumca3U7gXbfVKlF68/+gNqnniAZkMjK1CKhmL9OSl63hVCyd7SqHs1uRX6fAnc5swrFKEXir6K1Pt5m7Mf0NKVTF+pEG/ONMzv0u3nLDpdL0wiJeAsAVMZeKDhEn0vfLxkM30fIe146J/0v0ag/FeajXvo3OXAh6Q2QHV3a7U29RH6GiiZrVXH5LbZWIMBtHEkHw5exCn/bPrWNHrPDmBN6VLDzijIwZrwRZxUlUEYzR8MoGBxIf6YoTYnwBd4vZ2Uze/yoF+aUVCILRnmWFQy/Di9XFM/Gf4bURC+Apom5gtsYyWS106qbbGpklQGL2I090ZMYzMxgtjGuXwf/XyYCiFN6HsV7wHtz1Siitaob73uo/ynHj59n+HFenzM1UIRqHsa9xeRVUT35T2OsjSPXdBXj8U25WRlJmbktmLA5Xmu+/12dHRsx1JduFhIznEUz8ESi3Mor6/CJn3xcaQ+smkB8IzY6KWFy0htONJYcZmXbSw07viwxOIQciuq0BKIfUV6mAJfFKdAP5UIHaUFZWaMcTjSRffWcr1HzFTR2+jZ+2f7M8ecM3IkwYXAo3v4+vF8YSLWnKVG7nMKxf3O0mIu9ikgnMCRcjNNJcrKw9xI+MiJhMhBdZ0gx3e7CJM07hbxUFys6SpnmiqM88P2NNPc6o+wj1vVdnIgN2cm7DWYybg5zqpecPtcw7EgIw+vVZtOTIz96ep1+FItOTjv2IQfvfQZH7lBwdVDdke/RThiAz+e1hfeZ0rx7f4V2NbHTakiFv79l/EX9d6r8ZvBy+ijdeQmLxvY2UVoMsbVhNCCEBZbnMe4IJyeuvkebdM9E5mzxPy75aOik+bXcSmi9XcDtDhpbzxVYXDvFG7zyIKHjWs753UjOxHn0T9oO3fowhU+utqYikxDcxYa2fAV86EbwhHb3iKjeSHFkQjWayMcZbw509/aojK49wruHTfnEWvOUiMdiiMWJaQ4yBfZyiZSHgKfcBbUz4efA2sLNSUSomOfR6eVM5+8afBr9Ia/RFt4Bopu4wZmTam+OOtlBSuMDNycrM9Q+RHnbYlwzRElh+YAz4+YN5h2wx185AYFp2/aHb0+n5Fo+fy+0cQWQlfU/RKK1FeRw+AqdU/i2utxE5uJMH1+fvr2X7wgnMb+elpTd+Lpu7gughGMfCPm30VWxMDdcczIJkntnjLyghE906L3RCKKw4Fvlnenk5U7ByVHu/G6MebIdEfKnNmiLTIvJLJ0aqmlyl2mA7SniLQ0S2VhrAXZEn2T+khUcUQj0TnLmjmVj7ySBd88evb2RDfz481Zaoyl4sglZyAUR0wnJGTGH2h2qL8eUh4hUiReHYeernr1oD1NJRzDotsnk+KI9mpuvHYBOZfpzg14ASudD06Tu9AIn+rFvgw/1joclyfCp/FqcDLd0+LJsm/EtK6LSf9dgQFvaBfPty+EZ3fnIz8/H3WxhI2T7LtQfO1XWP1WG2+Gj+BQZxsenHMXaJpM9L/DiPmqLl37Vj2O+X5tOiEvfFanjjt/91mu8IjFaZib5G5cwEDXUrHkR6BtjrvPWRTFoeW6zRSH17eLcrCWFIZxnT+MQAKKw/lGVfajU9FZ73HhF5FxcCF6HGkZI4U2lhippLdRSZHySr84NudMpMRU9RTlucT+jRbN62O3vH1Ez7XxWf2eVHZloMGiOIw5s70J51EVxJszR4psUuEVy/6Ut75zK5ahpvZt4x7Gc6U4ZxMWioQVmoCVN9jTVfqc+GaTQyTH4ruPDHIWAVIblcvJ1po9oC3ip8L2t6kEGQUrcHrxjygzUlVU6szF3q3d+taUIGf5b7Em+FFEe87ydTg4PYg8rs9rn4yD6809j9iY+xtqqbuIovW6EmIy78OdubU44foKTyzM/Q217O9A8arItMz8/DL188Kl79VPb2Si9PGdqKf/tH2KDTg6J95CbDJ84nlzXHxtwnsYdyyCOvJvvkUiI//4FDkp+jz2yQbLGFz+xuXTDvTnLoXf5ZGuu2Gm+nmwI9JpyX/kUCKRTAw+/RsqHwPKu1J8JdeNkVZUlGzFzN0dWB8rKzbh+B6tG5dh66y/o+Px+VyXLsRf6fsx8Mio+x9cxpgz6TgkEsmEob9uGhpxHDXrF3JNqvDCewYo+4k5DZEqWvYiadXysXAaseY6/pxJxyGRSCYQcaJgSXoQ/1bVVvJJLweSegVaOg6JRCKRJESaX8eVSCQSyf870nFIJBKJJCGk45BIJBJJAgD/A5C5OwPGOhlRAAAAAElFTkSuQmCC;" vertex="1" parent="1">
          <mxGeometry x="810" y="229.5" width="398" height="20" as="geometry" />
        </mxCell>
      </root>
    </mxGraphModel>
  </diagram>
</mxfile>
